<svg width="28" height="28" viewBox="0 0 28 28" fill="none" xmlns="http://www.w3.org/2000/svg">
  <g clip-path="url(#clip0_4165_134)">
    <path d="M18.0002 14C18.0002 13.9015 17.9809 13.8039 17.9432 13.7129C17.9055 13.6218 17.8502 13.5391 17.7805 13.4694C17.7109 13.3998 17.6281 13.3445 17.5371 13.3068C17.4461 13.2691 17.3485 13.2497 17.25 13.2498H14.7496L14.7496 10.7235C14.7428 10.5293 14.6608 10.3454 14.521 10.2104C14.3812 10.0754 14.1944 10 14.0001 10C13.8058 10 13.619 10.0754 13.4792 10.2104C13.3394 10.3454 13.2574 10.5293 13.2506 10.7235L13.2506 13.2498H10.7502C10.6517 13.2498 10.5542 13.2692 10.4631 13.3069C10.3721 13.3446 10.2894 13.3998 10.2197 13.4695C10.1501 13.5392 10.0948 13.6219 10.0571 13.7129C10.0194 13.8039 10 13.9015 10 14C10 14.0985 10.0194 14.1961 10.0571 14.2871C10.0948 14.3781 10.1501 14.4608 10.2197 14.5305C10.2894 14.6002 10.3721 14.6554 10.4631 14.6931C10.5542 14.7308 10.6517 14.7502 10.7502 14.7502H13.2506L13.2506 17.2498C13.2506 17.3483 13.27 17.4458 13.3077 17.5369C13.3454 17.6279 13.4006 17.7106 13.4703 17.7803C13.54 17.8499 13.6227 17.9052 13.7137 17.9429C13.8047 17.9806 13.9023 18 14.0008 18C14.0993 18 14.1969 17.9806 14.2879 17.9429C14.3789 17.9052 14.4616 17.8499 14.5313 17.7803C14.601 17.7106 14.6562 17.6279 14.6939 17.5369C14.7316 17.4458 14.7511 17.3483 14.7511 17.2498L14.751 14.7502H17.2514C17.4501 14.7499 17.6406 14.6707 17.781 14.5301C17.9214 14.3894 18.0003 14.1988 18.0002 14Z" fill="currentColor" />
  </g>
  <rect x="2.5" y="2.5" width="23" height="23" rx="11.5" stroke="currentColor" />
  <defs>
    <clipPath id="clip0_4165_134">
      <rect x="2" y="2" width="24" height="24" rx="12" fill="white" />
    </clipPath>
  </defs>
</svg>